<?xml version="1.0" encoding="UTF-8"?>
<svg width="287.98" height="287.98" version="1.1" viewBox="0 0 76.195 76.195" xmlns="http://www.w3.org/2000/svg">
 <g transform="translate(-5.11,-15.63)" font-family="Ubuntu" font-weight="700">
  <path d="m5.11 27.272c1.52 9 3.25 18.13 5.2 27.38a477.24 477.24 0 0 0 6.42 26.37h9.28a349.24 349.24 0 0 0 4.34-15.59l4.15-16.44c1.39 5.48 2.8 10.96 4.22 16.44a416.7 416.7 0 0 0 4.41 15.6h9.28c0.81-2.94 1.59-5.96 2.36-9a19.42 21.41 0 0 1-3.19-11.73 19.42 21.41 0 0 1 9.82-18.56 603.7 603.7 0 0 0 2.63-14.47h-10.51c-0.44 3.05-0.91 6.23-1.43 9.54-0.48 3.26-0.98 6.54-1.5 9.85-0.51 3.31-1.08 6.52-1.68 9.62-0.56 3.1-1.13 5.97-1.69 8.61-0.69-2.43-1.4-5.07-2.14-7.91l-2.2-8.53-2.02-8.23c-0.6-2.68-1.16-5.09-1.68-7.2h-8.63l-1.62 7.05a295 295 0 0 1-1.89 8.22c-0.69 2.85-1.4 5.69-2.14 8.53-0.73 2.85-1.49 5.54-2.27 8.07-0.6-2.64-1.21-5.5-1.82-8.6a889.55 889.55 0 0 1-4.73-29.02z" fill="#fff" font-size="70.94px" style="font-variant-caps:normal;font-variant-east-asian:normal;font-variant-ligatures:normal;font-variant-numeric:normal"/>
  <path d="m70.201 76.748q-8.0939 0-12.352-4.4402-4.208-4.4402-4.208-12.615 0-4.0528 1.2886-7.2216 1.2986-3.2085 3.5436-5.3839 2.255-2.2151 5.3556-3.3476 3.1208-1.1324 6.7449-1.1324 2.1141 0 3.8355 0.3278 1.7215 0.28807 3.0201 0.70527 1.2886 0.37747 2.1443 0.8046 0.86576 0.42714 1.2483 0.66554l-2.1543 5.9501q-1.5302-0.8046-3.5839-1.3708-2.0134-0.5662-4.6006-0.5662-1.7114 0-3.3926 0.5662-1.6309 0.5662-2.9194 1.8377-1.2483 1.2317-2.0134 3.2184t-0.76509 4.8078q0 2.2747 0.48322 4.2515 0.52348 1.937 1.6208 3.3575 1.1476 1.4105 2.9698 2.2648 1.8121 0.79467 4.3993 0.79467 1.6309 0 2.9194-0.1788 1.2986-0.19867 2.2953-0.42714 1.0067-0.28807 1.7718-0.61587t1.3892-0.61587l2.0637 5.9104q-1.5805 0.94367-4.4597 1.6887-2.8691 0.76487-6.6442 0.76487z" fill="#e5e5e5" font-size="47.54px" aria-label="C"/>
 </g>
</svg>
